Coordinates
version=1
nRows=7
nColumns=63
inDegrees=yes

Units are S.I. units (second, meters, Newtons, ...)
If the header above contains a line with 'inDegrees', this indicates whether rotational values are in degrees (yes) or radians (no).

endheader
time	pelvis_tilt	pelvis_list	pelvis_rotation	pelvis_tx	pelvis_ty	pelvis_tz	hip_flexion_r	hip_adduction_r	hip_rotation_r	knee_angle_r	knee_angle_r_beta	ankle_angle_r	subtalar_angle_r	mtp_angle_r	hip_flexion_l	hip_adduction_l	hip_rotation_l	knee_angle_l	knee_angle_l_beta	ankle_angle_l	subtalar_angle_l	mtp_angle_l	L5_S1_Flex_Ext	L5_S1_Lat_Bending	L5_S1_axial_rotation	L4_L5_Flex_Ext	L4_L5_Lat_Bending	L4_L5_axial_rotation	L3_L4_Flex_Ext	L3_L4_Lat_Bending	L3_L4_axial_rotation	L2_L3_Flex_Ext	L2_L3_Lat_Bending	L2_L3_axial_rotation	L1_L2_Flex_Ext	L1_L2_Lat_Bending	L1_L2_axial_rotation	L1_T12_Flex_Ext	L1_T12_Lat_Bending	L1_T12_axial_rotation	Abs_r3	Abs_r2	Abs_r1	Abs_t1	Abs_t2	neck_flexion	neck_bending	neck_rotation	arm_flex_r	arm_add_r	arm_rot_r	elbow_flex_r	pro_sup_r	wrist_flex_r	wrist_dev_r	arm_flex_l	arm_add_l	arm_rot_l	elbow_flex_l	pro_sup_l	wrist_flex_l	wrist_dev_l
     15.60800000	    -41.15308606	     -6.20897962	     -1.68418412	     -0.38296218	      1.11371134	      0.00607058	     99.92757895	     -7.65194253	     -6.55733010	    101.79333092	      1.77662878	      2.07015003	     -4.49347155	      0.00000000	     89.46833187	     -4.99257457	      8.41390028	     54.22947497	      0.94648289	      6.70239053	     -7.23705273	      0.00000000	     -0.08230865	      1.26833761	     -0.12899567	     -0.15285539	      1.68688902	     -0.13705790	     -0.13522488	      3.08383606	     -0.13705790	     -0.09407055	      3.08383606	     -0.11287121	     -0.07643181	      2.58639405	     -0.10480898	     -0.04703116	      1.96465495	     -0.09674675	     -0.58792243	     14.34768868	     -0.71743523	      0.00000000	      0.00000000	      0.00000000	      0.00000000	      0.00000000	     64.19865426	     -8.58692158	     26.50147652	     33.97082218	     49.68209051	      0.00000000	      5.00000014	     61.51556462	     -6.23398967	     18.39872063	     29.73961289	     56.05802162	      0.00000000	      5.00000014
     15.61700000	    -41.18421815	     -6.40741161	     -1.83910644	     -0.38291403	      1.11375325	      0.00594067	    100.94163843	     -7.67200196	     -6.63408471	    102.73355607	      1.79303881	      2.37815152	     -4.58756417	      0.00000000	     88.51873357	     -5.20987296	      8.75435069	     53.11458547	      0.92702440	      6.35986614	     -7.12695733	      0.00000000	     -0.08223983	      1.30312077	     -0.10603517	     -0.15272759	      1.73315062	     -0.11266237	     -0.13511182	      3.16840783	     -0.11266237	     -0.09399190	      3.16840783	     -0.09278077	     -0.07636791	      2.65732387	     -0.08615358	     -0.04699184	      2.01853407	     -0.07952638	     -0.58743090	     14.74116273	     -0.58973581	      0.00000000	      0.00000000	      0.00000000	      0.00000000	      0.00000000	     64.29268635	     -8.63579870	     26.64104008	     33.91210796	     49.71061575	      0.00000000	      5.00000014	     61.42817864	     -6.21544949	     18.34036192	     29.81373561	     56.04816979	      0.00000000	      5.00000014
     15.62500000	    -41.20855438	     -6.61372702	     -1.97403893	     -0.38292844	      1.11388455	      0.00579145	    101.94661794	     -7.74357063	     -6.73563628	    103.61988248	      1.80850812	      2.71401963	     -4.67392677	      0.00000000	     87.59197001	     -5.42853493	      9.08727657	     52.04507084	      0.90835785	      6.05429119	     -7.03285505	      0.00000000	     -0.08292311	      1.33777802	     -0.08871076	     -0.15399650	      1.77924476	     -0.09425519	     -0.13623437	      3.25267347	     -0.09425519	     -0.09477282	      3.25267347	     -0.07762192	     -0.07700240	      2.72799693	     -0.07207749	     -0.04738226	      2.07221815	     -0.06653307	     -0.59231145	     15.13321249	     -0.49338265	      0.00000000	      0.00000000	      0.00000000	      0.00000000	      0.00000000	     64.41300847	     -8.68555410	     26.81090610	     33.83893886	     49.74371730	      0.00000000	      5.00000014	     61.30568590	     -6.20872868	     18.25596383	     29.91374286	     56.02923091	      0.00000000	      5.00000014
     15.63300000	    -41.20713245	     -6.87960571	     -1.86965301	     -0.38297778	      1.11407378	      0.00528453	    102.89397999	     -8.07210188	     -6.89271793	    104.48111094	      1.82353939	      3.24643006	     -4.77724850	      0.00000000	     86.65728013	     -5.37578765	      9.54938231	     50.96205539	      0.88945566	      5.63094698	     -7.29749833	      0.00000000	     -0.08353909	      1.38132957	     -0.12325638	     -0.15514045	      1.83716833	     -0.13095991	     -0.13724638	      3.35856473	     -0.13095991	     -0.09547683	      3.35856473	     -0.10784934	     -0.07757440	      2.81680727	     -0.10014581	     -0.04773424	      2.13967951	     -0.09244229	     -0.59671139	     15.62587640	     -0.68551503	      0.00000000	      0.00000000	      0.00000000	      0.00000000	      0.00000000	     64.69671639	     -8.77421693	     27.68609803	     33.57291504	     49.95100349	      0.00000000	      5.00000014	     61.05912886	     -6.20823318	     17.70795865	     30.18476695	     56.01280848	      0.00000000	      5.00000014
     15.64200000	    -41.24399250	     -7.12648507	     -2.13909125	     -0.38309470	      1.11437861	      0.00547956	    103.87437154	     -8.00475169	     -7.09393112	    105.17321494	      1.83561889	      3.53274635	     -4.81185959	      0.00000000	     85.83157373	     -5.79163947	      9.79731018	     50.03136749	      0.87321209	      5.32874980	     -7.24377509	      0.00000000	     -0.08348942	      1.41942562	     -0.07867392	     -0.15504820	      1.88783608	     -0.08359104	     -0.13716476	      3.45119146	     -0.08359104	     -0.09542006	      3.45119146	     -0.06883968	     -0.07752827	      2.89449273	     -0.06392256	     -0.04770585	      2.19869029	     -0.05900544	     -0.59635656	     16.05682653	     -0.43756073	      0.00000000	      0.00000000	      0.00000000	      0.00000000	      0.00000000	     64.77901998	     -8.82165002	     27.81200065	     33.49546536	     49.98506024	      0.00000000	      5.00000014	     60.92713737	     -6.17600517	     17.60813637	     30.22260297	     56.01056323	      0.00000000	      5.00000014
     15.65000000	    -41.28103569	     -7.37197118	     -2.35082342	     -0.38321068	      1.11472372	      0.00564197	    104.82039013	     -8.00331043	     -7.30835987	    105.80618927	      1.84666637	      3.90082239	     -4.85475566	      0.00000000	     85.01662501	     -6.16299971	     10.01414134	     49.11080693	      0.85714528	      5.10705757	     -7.23842448	      0.00000000	     -0.08189900	      1.45750603	     -0.04962441	     -0.15209463	      1.93848302	     -0.05272593	     -0.13455186	      3.54378017	     -0.05272593	     -0.09360236	      3.54378017	     -0.04342136	     -0.07605141	      2.97214630	     -0.04031983	     -0.04679709	      2.25767684	     -0.03721831	     -0.58499635	     16.48759974	     -0.27599607	      0.00000000	      0.00000000	      0.00000000	      0.00000000	      0.00000000	     64.86337100	     -8.83914285	     27.96728660	     33.39602741	     50.02412583	      0.00000000	      5.00000014	     60.75524604	     -6.17941451	     17.47633317	     30.29531688	     56.00114884	      0.00000000	      5.00000014
     15.65800000	    -41.31639909	     -7.60578214	     -2.52415568	     -0.38341742	      1.11510291	      0.00582381	    105.74293214	     -8.03804105	     -7.53532431	    106.37405010	      1.85657741	      4.33304086	     -4.87481161	      0.00000000	     84.23540590	     -6.50364461	     10.17314142	     48.25217367	      0.84215930	      4.93154743	     -7.25184981	      0.00000000	     -0.08271887	      1.49350782	     -0.03241188	     -0.15361722	      1.98636540	     -0.03443763	     -0.13589883	      3.63131492	     -0.03443763	     -0.09453940	      3.63131492	     -0.02836040	     -0.07681274	      3.04556115	     -0.02633466	     -0.04726556	      2.31344362	     -0.02430891	     -0.59085263	     16.89485920	     -0.18026517	      0.00000000	      0.00000000	      0.00000000	      0.00000000	      0.00000000	     64.96116538	     -8.81564432	     28.16606145	     33.29598352	     50.07146670	      0.00000000	      5.00000014	     60.60592296	     -6.22112951	     17.28683491	     30.40070329	     55.98214704	      0.00000000	      5.00000014
